<svg width="640" height="640" viewBox="0 0 640 640" fill="none" xmlns="http://www.w3.org/2000/svg">
<g clip-path="url(#clip0_178_17)">
<rect width="640" height="640" fill="#F4FFFE"/>
<path d="M129.66 275.816C129.66 275.816 156.89 282.695 167.153 298.605C186.76 329.003 164.723 400.504 195.823 429.459C232.622 463.72 261.207 388.465 268.346 367.212C268.829 365.772 270.948 365.921 271.257 367.409C275.215 386.495 287.413 449.272 281.833 472.832C268.667 528.424 154.602 524.23 129.66 472.832C105.401 422.843 129.66 275.816 129.66 275.816Z" fill="#38B3AB"/>
<path d="M307.065 444.149C306.704 445.7 304.442 445.732 304.122 444.171C299.884 423.533 288.261 360.972 294.643 323.509C310.097 232.798 507.302 204.639 513.18 359.669L524.248 554.165C524.248 554.165 471.506 548.053 457.447 518.941C443.258 489.559 465.796 419.799 440.43 388.108C409.573 349.557 354.558 354.387 325.934 394.623C316.284 408.19 309.808 432.354 307.065 444.149Z" fill="#FB923C"/>
<circle cx="230.618" cy="243.47" r="52.9295" fill="#38B3AB"/>
<circle cx="405.58" cy="161.135" r="63.2214" fill="#FB923C"/>
</g>
<defs>
<clipPath id="clip0_178_17">
<rect width="640" height="640" fill="white"/>
</clipPath>
</defs>
</svg>
